<svg width="230" height="230" viewBox="0 0 230 230" fill="none" xmlns="http://www.w3.org/2000/svg">
<rect width="230" height="230" rx="12" fill="black"/>
<path d="M58 124H171L138.926 155.657C134.809 159.721 129.257 162 123.472 162H20V152.528C20.0002 146.744 22.2792 141.191 26.3428 137.074L58 105V124Z" fill="white"/>
<path d="M209 162H171V124H209V162Z" fill="white"/>
<path d="M209 76.4717C209 82.2564 206.721 87.8086 202.657 91.9258L171 124V105H58L90.0742 73.3428C94.1914 69.2792 99.7436 67.0001 105.528 67H209V76.4717Z" fill="white"/>
<path d="M58 105H20V67H58V105Z" fill="white"/>
</svg>
